<?xml version="1.0" encoding="utf-8"?>
<!-- Generator: Adobe Illustrator 16.2.1, SVG Export Plug-In . SVG Version: 6.00 Build 0)  -->
<!DOCTYPE svg PUBLIC "-//W3C//DTD SVG 1.1//EN" "http://www.w3.org/Graphics/SVG/1.1/DTD/svg11.dtd">
<svg version="1.1" id="Layer_1" xmlns="http://www.w3.org/2000/svg" xmlns:xlink="http://www.w3.org/1999/xlink" x="0px" y="0px"
	 width="18.641px" height="20.002px" viewBox="-0.532 -0.573 18.641 20.002" enable-background="new -0.532 -0.573 18.641 20.002"
	 xml:space="preserve">
<g>
	<path fill="#231F20" d="M6.738,13.967c-4.008,0-7.27-3.262-7.27-7.27c0-4.009,3.261-7.271,7.27-7.271
		c4.01,0,7.271,3.261,7.271,7.271C14.009,10.705,10.747,13.967,6.738,13.967z M6.738,0.386c-3.479,0-6.311,2.831-6.311,6.312
		c0,3.479,2.831,6.311,6.311,6.311c3.48,0,6.312-2.832,6.312-6.311C13.05,3.217,10.219,0.386,6.738,0.386z"/>
</g>
<g>
	
		<rect x="9.364" y="15.128" transform="matrix(-0.707 -0.7073 0.7073 -0.707 13.3515 36.7459)" fill="#231F20" width="9.849" height="0.958"/>
</g>
</svg>
