<?xml version="1.0" encoding="utf-8"?>
<!-- Generator: Adobe Illustrator 16.2.1, SVG Export Plug-In . SVG Version: 6.00 Build 0)  -->
<!DOCTYPE svg PUBLIC "-//W3C//DTD SVG 1.1//EN" "http://www.w3.org/Graphics/SVG/1.1/DTD/svg11.dtd">
<svg version="1.1" id="Layer_1" xmlns="http://www.w3.org/2000/svg" xmlns:xlink="http://www.w3.org/1999/xlink" x="0px" y="0px"
	 width="15.912px" height="20px" viewBox="0 0 15.912 20" enable-background="new 0 0 15.912 20" xml:space="preserve">
<g>
	<path fill="#231F20" d="M15.912,20H0V5.983h15.912V20z M0.918,19.082h14.074V6.902H0.918V19.082z"/>
</g>
<g>
	<path fill="#231F20" d="M12.504,6.442h-0.919V4.545c0-2-1.63-3.627-3.631-3.627c-2,0-3.626,1.627-3.626,3.627v1.897H3.409V4.545
		C3.409,2.04,5.448,0,7.954,0c2.509,0,4.55,2.04,4.55,4.546V6.442z"/>
</g>
<path fill="#FFFFFF" d="M15.046,19.357L15.046,19.357L15.046,19.357z"/>
<path fill="#231F20" d="M8.889,16.488H4.505c0.129,0,0.287,0.025,0.438-0.02c0.155-0.047,0.31-0.07,0.452-0.145
	s0.279-0.146,0.403-0.248c0.125-0.102,0.241-0.209,0.345-0.336c0.102-0.123,0.191-0.254,0.265-0.396
	c0.075-0.145,0.136-0.295,0.182-0.449s0.067-0.312,0.099-0.469c0.053,0.58,0.28,1.014,0.695,1.43
	C7.799,16.273,8.307,16.488,8.889,16.488"/>
<path fill="#231F20" d="M8.43,15.244c0-0.592,0.033-1.098-0.387-1.512c-0.421-0.416-0.771-0.639-1.358-0.689
	c0.59-0.053,0.858-0.277,1.279-0.693c0.421-0.416,0.466-0.926,0.466-1.514V15.244z"/>
<path fill="#231F20" d="M9.275,9.488h2.154v2.161c0-0.582-0.266-1.068-0.68-1.481C10.338,9.755,9.855,9.6,9.275,9.488"/>
<path fill="#231F20" d="M6.43,11.648c0-1.164-0.774-2.048-1.947-2.161H6.43V11.648z"/>
</svg>
